# xmcd
#
# Track frame offsets: 
#        150
#        16360
#        37103
#        54791
#        71426
#        88946
#        114496
#        133699
#        150917
#        170879
#        191539
#        210648
#        227474
#        253524
#        275731
#
# Disc length: 3951 seconds
#
# Revision: 0
# Processed by: cddbd v1.5.2PL0 Copyright (c) Steve Scherf et al.
# Submitted via: ExactAudioCopyFreeDBPlugin 1.0
#
DISCID=cc0f6d0f
DTITLE=Candi Staton - Life Happens
DYEAR=2014
DGENRE=Soul
TTITLE0=I Ain't Easy To Love
TTITLE1=Close To You
TTITLE2=Commitment
TTITLE3=Eternity
TTITLE4=Even The Bad Times Are Good
TTITLE5=She's After Your Man
TTITLE6=You Treat Me Like A Secret
TTITLE7=Where Were You?
TTITLE8=Three Minutes To A Relapse
TTITLE9=Never Even Had The Chance
TTITLE10=Go Baby Go
TTITLE11=My Heart's On Empty
TTITLE12=Have You Seen The Children?
TTITLE13=A Better World Coming
TTITLE14=Where I'm At
EXTD=
EXTT0=
EXTT1=
EXTT2=
EXTT3=
EXTT4=
EXTT5=
EXTT6=
EXTT7=
EXTT8=
EXTT9=
EXTT10=
EXTT11=
EXTT12=
EXTT13=
EXTT14=
PLAYORDER=
